<svg width="32" height="32" viewBox="0 0 32 32" fill="none" xmlns="http://www.w3.org/2000/svg">
<path fill-rule="evenodd" clip-rule="evenodd" d="M16 0C24.8366 0 32 7.16344 32 16C32 24.8366 24.8366 32 16 32C7.16344 32 0 24.8366 0 16C0 7.16344 7.16344 0 16 0ZM19.3785 22.6714C19.3785 24.3411 19.3639 25.6851 19.3639 26.0961C19.3639 26.2409 19.4067 26.3963 19.5071 26.5156C18.5447 26.7742 17.5343 26.914 16.4911 26.914C15.3121 26.914 14.1747 26.7363 13.1017 26.4087C13.1529 26.3107 13.1761 26.2006 13.1761 26.0961C13.1761 25.7985 13.1645 24.8154 13.1593 23.7726C9.68727 24.5275 8.95462 22.3002 8.95462 22.3002C8.38691 20.8576 7.56902 20.4742 7.56902 20.4742C6.4368 19.6996 7.6544 19.7155 7.6544 19.7155C8.90749 19.8036 9.56742 21.0016 9.56742 21.0016C10.6804 22.9095 12.4868 22.3579 13.199 22.0391C13.311 21.2324 13.6345 20.682 13.9913 20.3703C11.2195 20.0547 8.30545 18.9846 8.30545 14.2027C8.30545 12.8404 8.79302 11.727 9.59142 10.8531C9.46182 10.5386 9.03476 9.26936 9.71229 7.55038C9.71229 7.55038 10.7603 7.21496 13.1452 8.82965C14.1405 8.553 15.2081 8.41438 16.2688 8.40973C17.3295 8.41453 18.3978 8.553 19.3952 8.82965C21.7772 7.21496 22.8237 7.55038 22.8237 7.55038C23.503 9.26936 23.0756 10.5387 22.946 10.8531C23.7462 11.727 24.2304 12.8403 24.2304 14.2027C24.2304 18.9959 21.311 20.0513 18.5321 20.3603C18.9796 20.7476 19.3785 21.5072 19.3785 22.6714Z" fill="black"/>
</svg>
