<svg width="32" height="32" viewBox="0 0 32 32" fill="none" xmlns="http://www.w3.org/2000/svg">
<path fill-rule="evenodd" clip-rule="evenodd" d="M15.8862 31.772C24.6598 31.772 31.7723 24.6596 31.7723 15.886C31.7723 7.11241 24.6598 0 15.8862 0C7.11248 0 0 7.11241 0 15.886C0 24.6596 7.11248 31.772 15.8862 31.772ZM22.3717 15.6567H20.531V17.501H22.3717V19.3417H24.2124V17.501H26.0531V15.6567H24.2124V13.8196H22.3717V15.6567ZM5.52212 16.5665C5.52212 12.9694 8.29662 10.0533 11.8938 10.0533C13.6115 10.0533 15.261 10.581 16.4248 11.6674L14.8106 13.3949C13.8761 12.7435 12.9648 12.4603 11.8938 12.4603C9.62602 12.4603 7.9292 14.5842 7.9292 16.5665C7.9292 18.5488 9.84271 20.6727 12.177 20.6727C14.5113 20.6727 15.5752 18.832 15.7984 17.8408H12.0354V15.6567H18.344C18.5487 20.1063 16.1416 23.0797 12.177 23.0797C8.21239 23.0797 5.52212 20.1637 5.52212 16.5665Z" fill="black"/>
</svg>
