<svg width="32" height="32" viewBox="0 0 32 32" fill="none" xmlns="http://www.w3.org/2000/svg">
<path fill-rule="evenodd" clip-rule="evenodd" d="M16 32C24.8366 32 32 24.8366 32 16C32 7.16344 24.8366 0 16 0C7.16344 0 0 7.16344 0 16C0 24.8366 7.16344 32 16 32ZM9 22V12H12V22H9ZM14 12H17V13.3597C18.2449 12.0762 19.1767 11.65 20.75 11.65C23.25 11.75 24 13.75 24 16V22H21V16.5C21 15.35 20.6604 14.3559 19.5 14.3C18.3396 14.2441 17.11 15.1342 17 16.5V22H14V12ZM12 9.5C12 8.67157 11.3284 8 10.5 8C9.67157 8 9 8.67157 9 9.5C9 10.3284 9.67157 11 10.5 11C11.3284 11 12 10.3284 12 9.5Z" fill="black"/>
</svg>
