<svg width="32" height="32" viewBox="0 0 32 32" fill="none" xmlns="http://www.w3.org/2000/svg">
<path d="M21.7143 11.5429L12.8 19.4286C12.6857 19.5429 12.6857 19.6572 12.6857 19.7714L12.3429 22.8572C12.3429 22.9714 12.2286 22.9714 12.1143 22.8572L10.7429 18.2857C10.6286 18.0572 10.7429 17.8286 10.9714 17.7143L21.3714 11.2C21.7143 11.0857 21.9429 11.4286 21.7143 11.5429Z" fill="black"/>
<path d="M16 0C11.6259 0 7.59712 1.73913 4.71942 4.63768C1.84173 7.53623 0 11.5942 0 16C0 20.4058 1.72662 24.4638 4.71942 27.3623C7.59712 30.2609 11.6259 32 16 32C20.3741 32 24.4029 30.2609 27.2806 27.3623C30.1583 24.4638 32 20.4058 32 16C31.8849 7.18841 24.7482 0 16 0ZM25.4389 9.15942L22.2158 24.9275C22.1007 25.6232 21.1799 25.971 20.6043 25.5072L15.6547 21.7971L13.1223 24.3478C12.6619 24.8116 11.9712 24.5797 11.741 24L9.89928 18.2029L5.06475 16.6957C4.3741 16.4638 4.3741 15.6522 5.06475 15.4203L24.2878 7.88406C24.8633 7.76812 25.6691 8.34783 25.4389 9.15942Z" fill="black"/>
</svg>
